<svg width="640" height="640" viewBox="0 0 640 640" xmlns="http://www.w3.org/2000/svg"><rect width="640" height="640" rx="64" fill="#EEF7F3"/><ellipse cx="314" cy="550" rx="146" ry="25" fill="#C8E0D1"/><path d="M230 252h181l28 282H201l29-282z" fill="#78BC91"/><path d="M255 199l113-30 20 85-133 36v-91z" fill="#DCE8E0"/><path d="M273 154h194v36H273z" fill="#185639"/><path d="M273 186h49l16 72-49 13-16-85z" fill="#185639"/><rect x="237" y="321" width="166" height="137" rx="22" fill="#F4FAF6"/><path d="M320 346c29 34 43 57 43 78a43 43 0 1 1-86 0c0-21 14-44 43-78z" fill="#217B4E"/><text x="320" y="500" text-anchor="middle" font-family="Arial" font-size="21" font-weight="700" fill="#335A44">GLASS CLEANER</text></svg>
